<svg width="61" height="59" viewBox="0 0 61 59" fill="none" xmlns="http://www.w3.org/2000/svg">
<path fill-rule="evenodd" clip-rule="evenodd" d="M45.6569 6.64305C43.1569 4.64306 37.6569 0.143093 32.1568 1.14305C26.6568 2.14302 23.9902 5.80972 23.1568 8.14305L21.1568 6.64305L19.6568 8.14305L17.1569 5.14307C16.1569 6.14307 16.1568 7.64305 16.1568 7.64305C16.1568 7.64305 13.6568 7.64305 10.6568 9.14305C7.65683 10.6431 4.65683 12.6431 2.65683 14.6431C0.656833 16.6431 0.656872 20.1431 1.65686 21.1431C1.65686 21.1431 1.15687 18.1431 5.15687 16.1431C7.15687 15.1431 8.15689 13.9764 10.1569 12.1431C11.072 11.3042 10.1569 11.1431 11.6569 10.1431C12.0729 9.8657 13.3663 10.3525 14.1569 11.1431C15.1569 12.1431 17.6569 14.6431 18.1569 18.6431C18.5954 22.1513 18.6569 26.6431 18.1569 27.6431C17.4497 29.0573 16.1569 30.1431 14.6569 28.6431C12.8458 26.832 9.65687 18.1431 10.1569 20.6431C10.6569 23.143 13.6569 29.6431 13.6569 29.6431C13.6569 29.6431 17.7569 31.0431 18.1569 30.6431C18.6569 30.1431 19.1569 24.1431 19.6569 23.6431C20.1569 23.1431 20.7688 22.867 21.1569 23.6431C21.2966 23.9225 20.6569 26.1431 21.1569 31.1431H22.1569L22.1569 25.6431C22.1569 24.7698 24.1569 23.6431 24.1569 23.6431L24.1569 31.1431C25.9902 31.3097 28.9569 31.5431 30.1569 31.1431C31.3568 30.7431 34.1569 27.6431 34.6569 26.6431C35.1569 25.6431 34.6569 19.1431 34.6569 19.1431C34.6569 19.1431 36.1569 25.1431 36.1569 26.6431C36.1569 27.6431 33.1569 30.6431 33.1569 30.6431H34.1569C35.1569 29.3097 38.1569 27.1431 38.6569 26.1431C39.1935 25.0698 38.3235 12.8097 38.1569 8.64307L40.6569 21.6431L46.1569 20.7773C46.9651 18.7358 47.6569 17.5542 47.6569 14.6431C47.6569 11.1431 47.1569 10.143 45.6569 6.64305ZM21.6569 7.64307L24.1569 20.1431C23.6918 19.4123 22.8985 17.6278 22.1378 15.6696C22.8861 18.2639 23.4618 20.8873 23.6569 22.6431C22.3235 23.4764 19.6569 22.6431 19.6569 22.6431C18.6569 21.1431 17.4902 14.8097 16.6569 12.1431L19.1569 14.6431L18.1569 7.14307C18.8588 7.42385 19.6839 8.86256 20.4809 10.8063C20.1943 9.75723 20.0529 8.95486 20.1569 8.64307C20.5569 7.44307 21.1569 7.4764 21.6569 7.64307ZM34.6569 6.64307C34.1569 7.14307 27.6569 16.6431 26.1569 20.6431C29.1569 17.6431 33.6569 11.1431 35.6569 8.64307C37.1522 6.77393 43.1569 7.14307 43.6569 6.64307C41.6569 5.64307 35.2893 6.01061 34.6569 6.64307Z" fill="black"/>
<path d="M21.1569 31.6431L18.1569 31.1431L16.6569 38.6431C18.1569 39.1431 20.1569 39.6431 21.6569 40.6431C21.6569 40.6431 21.8235 35.1431 21.1569 31.6431Z" fill="black"/>
<path d="M33.6569 44.1431C34.3235 45.8097 35.5569 49.7431 35.1569 52.1431C35.1569 52.1431 37.9902 53.3097 39.6569 52.6431L45.1569 47.6431L43.6569 46.1431L47.1569 47.1431L50.1569 45.6431L50.6569 46.1431L51.1569 45.6431C51.1569 45.6431 51.5358 45.8715 51.6569 46.6431L54.1569 41.1431L52.6569 42.1431C52.6569 42.1431 54.1569 39.6431 53.6569 38.6431L51.6569 42.6431L46.1569 35.6431C46.1569 36.4957 47.7724 38.8024 49.1669 40.6345C50.3413 42.0309 51.1569 43.1431 51.1569 43.1431C51.1569 43.1431 50.2256 42.0256 49.1669 40.6345C47.2916 38.4048 44.5016 35.4505 42.6569 35.1431L50.6569 43.1431C50.6569 43.1431 41.6569 37.6431 41.1569 37.6431L50.6569 43.6431H48.1569L50.6569 44.6431L33.6569 44.1431Z" fill="black"/>
<path d="M13.1569 29.6431C9.65686 28.6431 2.65686 23.6431 2.65686 23.6431C2.65686 23.6431 6.15686 36.4953 6.15686 41.6431C6.15686 42.1431 6.15686 47.1431 2.65686 50.6431C2.65686 50.6431 18.3235 52.1431 28.6569 52.1431V44.1431L19.1569 43.6431L16.1569 40.6431L13.1569 29.6431Z" fill="black"/>
<path d="M47.6569 22.1431C47.1569 21.6431 46.6569 21.6431 46.1569 22.6431C45.5244 23.908 42.6569 27.1431 42.6569 27.1431C45.1569 26.6431 48.1569 22.6431 47.6569 22.1431Z" fill="black"/>
<path fill-rule="evenodd" clip-rule="evenodd" d="M40.6569 23.1431C40.6531 23.4159 40.1569 24.6431 40.1569 26.1431C40.1569 26.1786 40.1566 26.2129 40.156 26.2463C40.2609 25.7687 40.4589 25.3411 40.6569 25.1431C41.1569 24.6431 44.4902 22.9764 45.6569 22.1431C45.6869 22.0531 45.7169 21.965 45.7468 21.8785C44.9199 22.2007 43.5556 22.4783 42.4475 22.6982L40.6569 23.1431Z" fill="black"/>
<path d="M58.1569 31.6431L59.6569 35.1431L54.6569 40.1431L58.1569 31.6431Z" fill="black"/>
<path d="M59.1569 43.1431H56.6569C57.1569 42.6431 58.6569 42.6431 58.6569 42.6431H55.6569C56.6569 41.6431 59.6569 41.1431 59.6569 41.1431L59.1569 43.1431Z" fill="black"/>
<path d="M51.1569 55.1431L53.6569 53.1431L54.6569 47.6431L55.6569 49.6431L56.6569 48.1431V46.6431L59.1569 44.6431H56.1569C56.4656 44.9518 57.6569 45.1431 57.6569 45.1431L57.1569 45.6431H55.1569L56.1569 47.1431L54.1569 46.1431V47.1431L53.1569 46.6431V48.6431L52.6569 47.6431C52.3235 49.3097 51.7569 51.7431 52.1569 52.1431C52.5569 52.5431 51.9902 53.3097 51.6569 53.6431C51.6569 53.6431 51.169 54.2699 51.1569 55.1431Z" fill="black"/>
<path d="M49.6569 52.1431C48.3235 55.1431 46.8569 58.1431 47.6569 58.1431C48.4569 58.1431 49.9902 54.6431 50.6569 53.1431V48.6431C50.1569 49.1431 49.8521 51.362 49.6569 52.1431Z" fill="black"/>
<path d="M32.6569 44.6431H29.6569L30.6569 50.1431H32.6569C32.6569 50.1431 32.6569 50.6431 31.1569 51.1431L31.6569 51.6431L31.1569 52.1431H33.1569C33.3235 50.3097 33.4569 45.8431 32.6569 44.6431Z" fill="black"/>
<path d="M26.6569 36.6431C27.3235 37.3097 29.6569 38.6431 29.6569 38.6431C29.6569 38.6431 30.6569 39.6431 31.1569 41.1431L29.1569 41.6431L29.6569 40.1431L26.6569 41.1431C27.6569 39.6431 28.1569 39.1431 28.1569 39.1431L25.6569 40.1431L26.6569 36.6431Z" fill="black"/>
<path d="M24.1569 34.1431C24.8235 33.9764 25.6569 35 25.6569 35C25.6569 35 25 39 23.5 41L24.1569 34.1431Z" fill="black"/>
<path d="M59.6569 39.5L60 36.5L54.1569 42.1431C54.9902 41.6431 56.1259 41.0671 57.1569 40.6345C57.6569 40.4247 58.9902 39.8333 59.6569 39.5Z" fill="black"/>
<path d="M22.1569 31.1431H21.1569C20.6569 26.1431 21.2966 23.9225 21.1569 23.6431C20.7688 22.867 20.1569 23.1431 19.6569 23.6431C19.1569 24.1431 18.6569 30.1431 18.1569 30.6431C17.7569 31.0431 13.6569 29.6431 13.6569 29.6431C13.6569 29.6431 10.6569 23.143 10.1569 20.6431C9.65687 18.1431 12.8458 26.832 14.6569 28.6431C16.1569 30.1431 17.4497 29.0573 18.1569 27.6431C18.6569 26.6431 18.5954 22.1513 18.1569 18.6431C17.6569 14.6431 15.1569 12.1431 14.1569 11.1431C13.3663 10.3525 12.0729 9.8657 11.6569 10.1431C10.1569 11.1431 11.072 11.3042 10.1569 12.1431C8.15689 13.9764 7.15687 15.1431 5.15687 16.1431C1.15687 18.1431 1.65686 21.1431 1.65686 21.1431C0.656872 20.1431 0.656833 16.6431 2.65683 14.6431C4.65683 12.6431 7.65683 10.6431 10.6568 9.14305C13.6568 7.64305 16.1568 7.64305 16.1568 7.64305C16.1568 7.64305 16.1569 6.14307 17.1569 5.14307L19.6568 8.14305L21.1568 6.64305L23.1568 8.14305C23.9902 5.80972 26.6568 2.14302 32.1568 1.14305C37.6569 0.143093 43.1569 4.64306 45.6569 6.64305C47.1569 10.143 47.6569 11.1431 47.6569 14.6431M22.1569 31.1431C22.1569 31.1431 22.1569 27.1431 22.1569 25.6431M22.1569 31.1431L22.1569 25.6431M22.1569 25.6431C22.1569 24.7698 24.1569 23.6431 24.1569 23.6431L24.1569 31.1431C25.9902 31.3097 28.9569 31.5431 30.1569 31.1431C31.3568 30.7431 34.1569 27.6431 34.6569 26.6431C35.1569 25.6431 34.6569 19.1431 34.6569 19.1431C34.6569 19.1431 36.1569 25.1431 36.1569 26.6431C36.1569 27.6431 33.1569 30.6431 33.1569 30.6431H34.1569C35.1569 29.3097 38.1569 27.1431 38.6569 26.1431C39.1935 25.0698 38.3235 12.8097 38.1569 8.64307L40.6569 21.6431L46.1569 20.7773M46.1569 20.7773C46.1569 20.7773 45.9234 21.3859 45.7468 21.8785M46.1569 20.7773C46.9651 18.7358 47.6569 17.5542 47.6569 14.6431M40.6569 23.1431C40.6531 23.4159 40.1569 24.6431 40.1569 26.1431C40.1569 26.1786 40.1566 26.2129 40.156 26.2463M40.6569 23.1431L42.4475 22.6982M40.6569 23.1431C40.6582 23.0479 41.4488 22.8964 42.4475 22.6982M45.6569 22.1431C44.4902 22.9764 41.1569 24.6431 40.6569 25.1431C40.4589 25.3411 40.2609 25.7687 40.156 26.2463M45.6569 22.1431C46.6569 19.1431 47.6569 18.1431 47.6569 14.6431M45.6569 22.1431C45.6869 22.0531 45.7169 21.965 45.7468 21.8785M45.7468 21.8785C44.9199 22.2007 43.5556 22.4783 42.4475 22.6982M45.7468 21.8785L42.4475 22.6982M22.1378 15.6696C22.8985 17.6278 23.6918 19.4123 24.1569 20.1431L21.6569 7.64307C21.1569 7.4764 20.5569 7.44307 20.1569 8.64307C20.0529 8.95486 20.1943 9.75723 20.4809 10.8063M22.1378 15.6696C22.8861 18.2639 23.4618 20.8873 23.6569 22.6431C22.3235 23.4764 19.6569 22.6431 19.6569 22.6431C18.6569 21.1431 17.4902 14.8097 16.6569 12.1431L19.1569 14.6431L18.1569 7.14307C18.8588 7.42385 19.6839 8.86256 20.4809 10.8063M22.1378 15.6696C21.6413 13.9483 21.0688 12.24 20.4809 10.8063M22.1378 15.6696C21.4858 13.9913 20.8578 12.1856 20.4809 10.8063M49.1669 40.6345C47.7724 38.8024 46.1569 36.4957 46.1569 35.6431L51.6569 42.6431L53.6569 38.6431C54.1569 39.6431 52.6569 42.1431 52.6569 42.1431L54.1569 41.1431L51.6569 46.6431C51.5358 45.8715 51.1569 45.6431 51.1569 45.6431L50.6569 46.1431L50.1569 45.6431L47.1569 47.1431L43.6569 46.1431L45.1569 47.6431L39.6569 52.6431C37.9902 53.3097 35.1569 52.1431 35.1569 52.1431C35.5569 49.7431 34.3235 45.8097 33.6569 44.1431L50.6569 44.6431L48.1569 43.6431H50.6569L41.1569 37.6431C41.6569 37.6431 50.6569 43.1431 50.6569 43.1431L42.6569 35.1431C44.5016 35.4505 47.2916 38.4048 49.1669 40.6345ZM49.1669 40.6345C50.3413 42.0309 51.1569 43.1431 51.1569 43.1431C51.1569 43.1431 50.2256 42.0256 49.1669 40.6345ZM40.156 26.2463C40.1512 26.5326 40.1257 26.7406 40.0795 26.9081M40.156 26.2463C40.1086 26.4622 40.0802 26.6884 40.0795 26.9081M40.0795 26.9081C40.0779 27.4297 40.2319 27.9153 40.6569 28.1431L38.6569 29.1431C39.4298 27.5971 39.904 27.5449 40.0795 26.9081ZM26.1569 20.6431C27.6569 16.6431 34.1569 7.14307 34.6569 6.64307C35.2893 6.01061 41.6569 5.64307 43.6569 6.64307C43.1569 7.14307 37.1522 6.77393 35.6569 8.64307C33.6569 11.1431 29.1569 17.6431 26.1569 20.6431ZM47.6569 22.1431C47.1569 21.6431 46.6569 21.6431 46.1569 22.6431C45.5244 23.908 42.6569 27.1431 42.6569 27.1431C45.1569 26.6431 48.1569 22.6431 47.6569 22.1431ZM13.1569 29.6431C9.65686 28.6431 2.65686 23.6431 2.65686 23.6431C2.65686 23.6431 6.15686 36.4953 6.15686 41.6431C6.15686 42.1431 6.15686 47.1431 2.65686 50.6431C2.65686 50.6431 18.3235 52.1431 28.6569 52.1431V44.1431L19.1569 43.6431L16.1569 40.6431L13.1569 29.6431ZM21.1569 31.6431L18.1569 31.1431L16.6569 38.6431C18.1569 39.1431 20.1569 39.6431 21.6569 40.6431C21.6569 40.6431 21.8235 35.1431 21.1569 31.6431ZM24.1569 34.1431C24.8235 33.9764 25.6569 35 25.6569 35C25.6569 35 25 39 23.5 41L24.1569 34.1431ZM26.6569 36.6431C27.3235 37.3097 29.6569 38.6431 29.6569 38.6431C29.6569 38.6431 30.6569 39.6431 31.1569 41.1431L29.1569 41.6431L29.6569 40.1431L26.6569 41.1431C27.6569 39.6431 28.1569 39.1431 28.1569 39.1431L25.6569 40.1431L26.6569 36.6431ZM32.6569 44.6431H29.6569L30.6569 50.1431H32.6569C32.6569 50.1431 32.6569 50.6431 31.1569 51.1431L31.6569 51.6431L31.1569 52.1431H33.1569C33.3235 50.3097 33.4569 45.8431 32.6569 44.6431ZM58.1569 31.6431L59.6569 35.1431L54.6569 40.1431L58.1569 31.6431ZM59.6569 39.5L60 36.5L54.1569 42.1431C54.9902 41.6431 56.1259 41.0671 57.1569 40.6345C57.6569 40.4247 58.9902 39.8333 59.6569 39.5ZM49.6569 52.1431C48.3235 55.1431 46.8569 58.1431 47.6569 58.1431C48.4569 58.1431 49.9902 54.6431 50.6569 53.1431V48.6431C50.1569 49.1431 49.8521 51.362 49.6569 52.1431ZM51.1569 55.1431L53.6569 53.1431L54.6569 47.6431L55.6569 49.6431L56.6569 48.1431V46.6431L59.1569 44.6431H56.1569C56.4656 44.9518 57.6569 45.1431 57.6569 45.1431L57.1569 45.6431H55.1569L56.1569 47.1431L54.1569 46.1431V47.1431L53.1569 46.6431V48.6431L52.6569 47.6431C52.3235 49.3097 51.7569 51.7431 52.1569 52.1431C52.5569 52.5431 51.9902 53.3097 51.6569 53.6431C51.6569 53.6431 51.169 54.2699 51.1569 55.1431ZM59.1569 43.1431H56.6569C57.1569 42.6431 58.6569 42.6431 58.6569 42.6431H55.6569C56.6569 41.6431 59.6569 41.1431 59.6569 41.1431L59.1569 43.1431Z" stroke="black"/>
</svg>
