<svg width="40" height="40" viewBox="0 0 40 40" fill="none" xmlns="http://www.w3.org/2000/svg">
<path fill-rule="evenodd" clip-rule="evenodd" d="M6.66663 9.99998C6.66663 6.31808 9.65139 3.33331 13.3333 3.33331H26.6666C30.3485 3.33331 33.3333 6.31808 33.3333 9.99998V30C33.3333 33.6819 30.3485 36.6666 26.6666 36.6666H13.3333C9.65139 36.6666 6.66663 33.6819 6.66663 30V9.99998ZM13.3333 6.66665C11.4923 6.66665 9.99996 8.15903 9.99996 9.99998V30C9.99996 31.8409 11.4923 33.3333 13.3333 33.3333H26.6666C28.5076 33.3333 30 31.8409 30 30V9.99998C30 8.15903 28.5076 6.66665 26.6666 6.66665H13.3333Z" fill="white"/>
<path fill-rule="evenodd" clip-rule="evenodd" d="M13.3333 3.33331H16.0708C17.587 3.33331 19.0055 3.97703 19.9999 5.06281C20.9943 3.97703 22.4128 3.33331 23.9291 3.33331H26.6666V6.66665H23.9291C23.1738 6.66665 22.4833 7.09339 22.1455 7.76895C21.2615 9.537 18.7384 9.537 17.8543 7.76896C17.5166 7.09339 16.8261 6.66665 16.0708 6.66665H13.3333V3.33331Z" fill="white"/>
<path fill-rule="evenodd" clip-rule="evenodd" d="M26.1399 17.1175C26.8114 17.747 26.8454 18.8017 26.2159 19.4733L19.9659 26.1399C19.3688 26.7768 18.3814 26.845 17.7024 26.2963L13.9524 23.266C13.2365 22.6875 13.1251 21.6381 13.7037 20.9222C14.2822 20.2063 15.3316 20.0949 16.0475 20.6734L18.5931 22.7305L23.7841 17.1935C24.4136 16.5219 25.4684 16.4879 26.1399 17.1175Z" fill="white"/>
</svg>
