<svg width="40" height="40" viewBox="0 0 40 40" fill="none" xmlns="http://www.w3.org/2000/svg">
<path fill-rule="evenodd" clip-rule="evenodd" d="M30.0294 8.33333C29.5951 8.33333 29.1787 8.50584 28.8716 8.81289L10.7084 26.9761C10.0676 27.6169 9.61305 28.4198 9.39326 29.2989L8.95732 31.0427L10.7011 30.6068C11.5803 30.387 12.3832 29.9324 13.024 29.2916L31.1871 11.1284C31.3392 10.9764 31.4598 10.7959 31.5421 10.5972C31.6243 10.3986 31.6667 10.1857 31.6667 9.97065C31.6667 9.75563 31.6243 9.54272 31.5421 9.34408C31.4598 9.14543 31.3392 8.96493 31.1871 8.81289C31.0351 8.66085 30.8546 8.54025 30.656 8.45797C30.4573 8.37568 30.2444 8.33333 30.0294 8.33333ZM26.5146 6.45587C27.4468 5.52369 28.7111 5 30.0294 5C30.6821 5 31.3285 5.12857 31.9316 5.37837C32.5346 5.62817 33.0826 5.9943 33.5442 6.45587C34.0057 6.91744 34.3719 7.46539 34.6217 8.06846C34.8715 8.67153 35 9.3179 35 9.97065C35 10.6234 34.8715 11.2698 34.6217 11.8728C34.3719 12.4759 34.0057 13.0239 33.5442 13.4854L15.381 31.6486C14.313 32.7166 12.9748 33.4743 11.5096 33.8406L7.07093 34.9502C6.50297 35.0922 5.90216 34.9258 5.48819 34.5118C5.07422 34.0979 4.90781 33.4971 5.0498 32.9291L6.15945 28.4905C6.52577 27.0252 7.28343 25.687 8.35142 24.6191L26.5146 6.45587Z" fill="white"/>
<path fill-rule="evenodd" clip-rule="evenodd" d="M27.1549 17.8452L22.1549 12.8452L24.5119 10.4882L29.5119 15.4882L27.1549 17.8452Z" fill="white"/>
<path fill-rule="evenodd" clip-rule="evenodd" d="M20 33.3333C20 32.4128 20.7462 31.6667 21.6667 31.6667L33.3333 31.6667C34.2538 31.6667 35 32.4128 35 33.3333C35 34.2538 34.2538 35 33.3333 35L21.6667 35C20.7462 35 20 34.2538 20 33.3333Z" fill="white"/>
</svg>
