<svg width="64" height="64" viewBox="0 0 64 64" fill="none" xmlns="http://www.w3.org/2000/svg">
<path d="M50.6666 27.6364C50.6666 42.9091 31.9999 56 31.9999 56C31.9999 56 13.3333 42.9091 13.3333 27.6364C13.3333 22.4285 15.2999 17.4339 18.8006 13.7514C22.3013 10.0688 27.0492 8 31.9999 8C36.9506 8 41.6986 10.0688 45.1992 13.7514C48.6999 17.4339 50.6666 22.4285 50.6666 27.6364Z" stroke="black" stroke-width="2" stroke-linecap="round" stroke-linejoin="round"/>
<path d="M31.9999 34.6666C36.4182 34.6666 39.9999 31.0849 39.9999 26.6666C39.9999 22.2483 36.4182 18.6666 31.9999 18.6666C27.5816 18.6666 23.9999 22.2483 23.9999 26.6666C23.9999 31.0849 27.5816 34.6666 31.9999 34.6666Z" stroke="black" stroke-width="2" stroke-linecap="round" stroke-linejoin="round"/>
</svg>
