<svg width="64" height="64" viewBox="0 0 64 64" fill="none" xmlns="http://www.w3.org/2000/svg">
<path fill-rule="evenodd" clip-rule="evenodd" d="M25.4538 23.0476C26.5297 26.935 25.3196 30.9905 22.668 33.4902C22.1653 33.9642 22.0032 34.7304 22.3982 35.2974C23.239 36.5044 24.1952 37.6516 25.2673 38.7246C26.3379 39.796 27.4824 40.7517 28.6865 41.5922C29.255 41.989 30.0235 41.8244 30.4967 41.3175C32.9924 38.6448 37.0597 37.4214 40.9577 38.5018C46.2118 39.9582 49.169 45.0485 47.5627 49.8715C42.8559 64.0047 24.7345 49.9961 19.3694 44.627C13.8745 39.128 0.0814051 21.1108 14.0927 16.4376C18.912 14.8301 23.9985 17.7895 25.4538 23.0476Z" stroke="black" stroke-width="2"/>
</svg>
