<svg width="40" height="40" viewBox="0 0 40 40" fill="none" xmlns="http://www.w3.org/2000/svg">
<path fill-rule="evenodd" clip-rule="evenodd" d="M3.33337 20C3.33337 10.7952 10.7953 3.33331 20 3.33331C29.2048 3.33331 36.6667 10.7952 36.6667 20C36.6667 29.2047 29.2048 36.6666 20 36.6666C10.7953 36.6666 3.33337 29.2047 3.33337 20ZM20 6.66665C12.6362 6.66665 6.66671 12.6362 6.66671 20C6.66671 27.3638 12.6362 33.3333 20 33.3333C27.3638 33.3333 33.3334 27.3638 33.3334 20C33.3334 12.6362 27.3638 6.66665 20 6.66665Z" fill="white"/>
<path fill-rule="evenodd" clip-rule="evenodd" d="M17.8579 11.9937C18.8296 10.3791 21.1703 10.3791 22.142 11.9937L23.8069 14.7602L26.9525 15.4887C28.7883 15.9139 29.5116 18.1401 28.2763 19.5631L26.1597 22.0014L26.4389 25.2182C26.6018 27.0955 24.7081 28.4713 22.973 27.7363L20 26.4767L17.0269 27.7363C15.2918 28.4713 13.3981 27.0955 13.5611 25.2182L13.8402 22.0014L11.7236 19.5631C10.4883 18.1401 11.2117 15.9139 13.0475 15.4887L16.193 14.7602L17.8579 11.9937ZM20 14.8989L18.867 16.7815C18.518 17.3615 17.9486 17.7752 17.2891 17.9279L15.1486 18.4237L16.5889 20.0829C17.0327 20.5941 17.2501 21.2635 17.1916 21.9379L17.0016 24.1268L19.0247 23.2697C19.6481 23.0057 20.3519 23.0057 20.9752 23.2697L22.9983 24.1268L22.8083 21.9379C22.7498 21.2635 22.9673 20.5941 23.4111 20.0829L24.8514 18.4237L22.7109 17.9279C22.0513 17.7752 21.482 17.3615 21.1329 16.7815L20 14.8989Z" fill="white"/>
</svg>
